<svg width="83" height="72" viewBox="0 0 83 72" fill="none" xmlns="http://www.w3.org/2000/svg">
<circle cx="41" cy="36" r="36" fill="#1954CC"/>
<path d="M5.5 41.0001C5.5 41.0001 5.80476 42.5237 6 43.5C6.19526 44.4763 6.49993 46.0001 6.49993 46.0001L42 46.5C42 46.5 35.999 40.2243 32.5 36C28.8985 31.6519 26.9971 24.0003 22.5 24.0003H10L16.5 41.0001H5.5Z" fill="white"/>
<path d="M47.5 49.4999C30.5 49.4998 7.99991 49.5 7.99991 49.5L10.9999 56H61.5C61.5 56 57.8539 55.1051 55 53.4999C52.5515 52.1227 50.082 49.4999 47.5 49.4999Z" fill="white"/>
<path fill-rule="evenodd" clip-rule="evenodd" d="M77.5 56.5H82.5C82.5 56.5 78.7744 52.2906 74 50.5002C71.12 49.4202 68.4068 48.7479 65.7502 48.0896C61.0276 46.9193 56.484 45.7933 51.5 42.5002C50.627 41.9234 49.8731 41.4369 49.2067 41.007C45.5635 38.6562 44.5387 37.995 41 33.5002C39.433 31.5098 38.009 29.144 36.5675 26.7492C34.5574 23.4096 32.5133 20.0136 30 17.5002C28.4999 16.0001 24 16 24 16H15.5V20H21.5C21.5 20 26.7255 19.7252 28 20.9999C30.6039 23.604 31.9515 25.9515 33.3518 28.3908C34.3714 30.1671 35.419 31.9921 37 34.0002C41.1859 39.3171 43.3542 41.7695 49 45.4999C54.0867 48.8608 59.1413 49.9645 63.9863 51.0225C66.5588 51.5842 69.0723 52.133 71.5 53C71.6634 53.0584 71.8305 53.1236 72 53.1945C74.4813 54.2327 77.5 56.5 77.5 56.5Z" fill="white"/>
<path d="M70 56.5H77.5C77.5 56.5 74.4813 54.2327 72 53.1945L70 56.5Z" fill="#1954CC"/>
</svg>
